<svg width="68" height="51" viewBox="0 0 68 51" fill="none" xmlns="http://www.w3.org/2000/svg">
<path fill-rule="evenodd" clip-rule="evenodd" d="M20.6788 0L11.2545 9.28665L18.6235 16.548H11.2545V28.8933H31.1518L40.4699 38.0752L49.788 28.8933H56.5697V16.548H37.4721L20.6788 0ZM37.4721 16.548H18.6235L31.1518 28.8933H49.788L49.8942 28.7886L37.4721 16.548Z" fill="#FFB800"/>
<path d="M0 48.6906L1.38342 40.4792H3.11676L2.60408 43.5665H2.6529C2.75598 43.4008 2.89432 43.2324 3.06793 43.0613C3.24425 42.8876 3.4599 42.7432 3.71488 42.6283C3.96986 42.5107 4.27231 42.4519 4.62224 42.4519C5.07795 42.4519 5.47806 42.5695 5.82255 42.8047C6.16705 43.0373 6.41525 43.3888 6.56716 43.8592C6.71906 44.327 6.73534 44.9137 6.61598 45.6193C6.50206 46.3063 6.29183 46.8863 5.98531 47.3594C5.6815 47.8299 5.31666 48.1867 4.89078 48.43C4.46762 48.6705 4.01869 48.7908 3.54399 48.7908C3.20763 48.7908 2.93094 48.736 2.71394 48.6264C2.49964 48.5168 2.33282 48.3792 2.21347 48.2134C2.09411 48.045 2.00867 47.8753 1.95713 47.7042H1.87168L1.70893 48.6906H0ZM2.21753 45.6113C2.15786 45.9775 2.1565 46.2969 2.21347 46.5696C2.27314 46.8422 2.38707 47.0547 2.55525 47.2071C2.72614 47.3568 2.94993 47.4316 3.22661 47.4316C3.51144 47.4316 3.76371 47.3554 3.98342 47.2031C4.20586 47.048 4.39031 46.8342 4.53679 46.5616C4.68327 46.2862 4.78635 45.9695 4.84602 45.6113C4.90299 45.2558 4.90435 44.9431 4.85009 44.6731C4.79584 44.4031 4.68463 44.192 4.51645 44.0396C4.34827 43.8873 4.12041 43.8111 3.83288 43.8111C3.55348 43.8111 3.30257 43.8846 3.08014 44.0316C2.86042 44.1786 2.67596 44.3871 2.52677 44.6571C2.38029 44.927 2.27721 45.2451 2.21753 45.6113Z" fill="#1E1E1E"/>
<path d="M10.0837 48.8108C9.44622 48.8108 8.91863 48.6772 8.50089 48.4099C8.08315 48.1399 7.78884 47.7657 7.61794 47.2873C7.44976 46.8061 7.41857 46.2461 7.52436 45.6073C7.62744 44.9765 7.84173 44.4245 8.16724 43.9514C8.49275 43.4783 8.90642 43.1108 9.40825 42.8488C9.91007 42.5842 10.4756 42.4519 11.105 42.4519C11.7397 42.4519 12.266 42.5869 12.6837 42.8568C13.1014 43.1241 13.3957 43.4983 13.5666 43.9795C13.7375 44.4606 13.7701 45.0206 13.6643 45.6594C13.5585 46.2876 13.3415 46.8382 13.0133 47.3113C12.685 47.7844 12.2714 48.1533 11.7723 48.4179C11.2731 48.6799 10.7103 48.8108 10.0837 48.8108ZM10.2546 47.4877C10.5475 47.4877 10.8066 47.4062 11.0317 47.2432C11.2596 47.0774 11.4481 46.8529 11.5973 46.5696C11.7492 46.2836 11.855 45.9601 11.9147 45.5993C11.9743 45.2438 11.9784 44.9284 11.9269 44.6531C11.8753 44.3751 11.7668 44.1559 11.6014 43.9955C11.4386 43.8351 11.2148 43.7549 10.93 43.7549C10.637 43.7549 10.3766 43.8378 10.1488 44.0035C9.92092 44.1666 9.7324 44.3911 9.58321 44.6771C9.43402 44.9631 9.32958 45.2879 9.26991 45.6514C9.21294 46.0042 9.20887 46.3196 9.2577 46.5976C9.30653 46.873 9.41367 47.0908 9.57914 47.2512C9.74461 47.4089 9.96975 47.4877 10.2546 47.4877Z" fill="#1E1E1E"/>
<path d="M17.1106 48.8108C16.4732 48.8108 15.9456 48.6772 15.5278 48.4099C15.1101 48.1399 14.8158 47.7657 14.6449 47.2873C14.4767 46.8061 14.4455 46.2461 14.5513 45.6073C14.6544 44.9765 14.8687 44.4245 15.1942 43.9514C15.5197 43.4783 15.9334 43.1108 16.4352 42.8488C16.937 42.5842 17.5026 42.4519 18.1319 42.4519C18.7666 42.4519 19.2929 42.5869 19.7106 42.8568C20.1284 43.1241 20.4227 43.4983 20.5936 43.9795C20.7645 44.4606 20.797 45.0206 20.6912 45.6594C20.5854 46.2876 20.3684 46.8382 20.0402 47.3113C19.712 47.7844 19.2983 48.1533 18.7992 48.4179C18.3001 48.6799 17.7372 48.8108 17.1106 48.8108ZM17.2815 47.4877C17.5745 47.4877 17.8335 47.4062 18.0587 47.2432C18.2865 47.0774 18.475 46.8529 18.6242 46.5696C18.7761 46.2836 18.8819 45.9601 18.9416 45.5993C19.0013 45.2438 19.0054 44.9284 18.9538 44.6531C18.9023 44.3751 18.7938 44.1559 18.6283 43.9955C18.4656 43.8351 18.2418 43.7549 17.9569 43.7549C17.664 43.7549 17.4036 43.8378 17.1757 44.0035C16.9479 44.1666 16.7593 44.3911 16.6101 44.6771C16.461 44.9631 16.3565 45.2879 16.2968 45.6514C16.2399 46.0042 16.2358 46.3196 16.2846 46.5976C16.3335 46.873 16.4406 47.0908 16.6061 47.2512C16.7715 47.4089 16.9967 47.4877 17.2815 47.4877Z" fill="#1E1E1E"/>
<path d="M23.1732 46.9184L23.5191 44.8696H23.7714L26.1761 42.5321H28.1657L24.9595 45.6274H24.5444L23.1732 46.9184ZM21.3056 48.6906L22.689 40.4792H24.4224L23.039 48.6906H21.3056ZM25.2117 48.6906L23.8283 46.0083L25.1833 44.8014L27.2421 48.6906H25.2117Z" fill="#1E1E1E"/>
<path d="M29.7404 48.8068C29.3444 48.8068 29.0012 48.7387 28.711 48.6024C28.4234 48.4634 28.2119 48.2575 28.0762 47.9849C27.9406 47.7123 27.9067 47.3741 27.9745 46.9705C28.0342 46.6284 28.1468 46.3424 28.3122 46.1125C28.4804 45.8799 28.6852 45.6928 28.9266 45.5512C29.168 45.4095 29.4352 45.3013 29.7282 45.2264C30.0239 45.1516 30.329 45.1008 30.6437 45.0741C31.0072 45.0366 31.3028 45.0005 31.5307 44.9658C31.7613 44.9311 31.9335 44.8816 32.0474 44.8175C32.1614 44.7506 32.2305 44.6517 32.255 44.5208V44.4967C32.2956 44.2454 32.2482 44.0503 32.1125 43.9113C31.9796 43.7697 31.7667 43.6988 31.4737 43.6988C31.1645 43.6988 30.9014 43.7656 30.6844 43.8993C30.4701 44.0329 30.3168 44.2027 30.2246 44.4085L28.6459 44.2802C28.7869 43.906 28.9999 43.5825 29.2847 43.3099C29.5722 43.0346 29.9181 42.8234 30.3222 42.6764C30.7264 42.5267 31.1794 42.4519 31.6812 42.4519C32.0285 42.4519 32.3526 42.492 32.6537 42.5722C32.9575 42.6524 33.2193 42.7766 33.439 42.945C33.6614 43.1134 33.8215 43.3299 33.9191 43.5946C34.0195 43.8565 34.0398 44.1706 33.9802 44.5368L33.2762 48.6906H31.6324L31.7789 47.8366H31.7301C31.5972 48.029 31.4344 48.1987 31.2418 48.3457C31.0492 48.4901 30.8281 48.6037 30.5786 48.6866C30.329 48.7667 30.0496 48.8068 29.7404 48.8068ZM30.4362 47.6281C30.6884 47.6281 30.9204 47.5786 31.1319 47.4797C31.3462 47.3781 31.5226 47.2418 31.6609 47.0708C31.802 46.8997 31.8915 46.7059 31.9294 46.4894L32.0352 45.8358C31.981 45.8706 31.9023 45.9013 31.7992 45.9281C31.6989 45.9548 31.589 45.9802 31.4697 46.0042C31.353 46.0256 31.235 46.0457 31.1157 46.0644C30.9963 46.0804 30.8892 46.0965 30.7942 46.1125C30.5854 46.1419 30.3982 46.1887 30.2327 46.2528C30.0673 46.317 29.933 46.4039 29.8299 46.5134C29.7268 46.6204 29.6631 46.754 29.6387 46.9144C29.6007 47.1469 29.6563 47.3247 29.8055 47.4476C29.9574 47.5679 30.1676 47.6281 30.4362 47.6281Z" fill="#1E1E1E"/>
<path d="M40.5575 44.2882L38.9828 44.3844C38.9747 44.2481 38.9367 44.1265 38.8689 44.0196C38.8038 43.91 38.7075 43.8231 38.58 43.759C38.4552 43.6948 38.2979 43.6627 38.108 43.6627C37.8232 43.6627 37.5696 43.7269 37.3471 43.8552C37.1247 43.9835 36.9986 44.1479 36.9687 44.3483C36.9443 44.4767 36.9782 44.5849 37.0705 44.6731C37.1627 44.7613 37.3485 44.8362 37.6279 44.8976L38.7265 45.1222C39.3124 45.2451 39.7356 45.4496 39.996 45.7356C40.2591 46.0216 40.3527 46.3958 40.2767 46.8583C40.2089 47.2512 40.034 47.5947 39.7519 47.8887C39.4697 48.18 39.1117 48.4072 38.6777 48.5703C38.2437 48.7307 37.7622 48.8108 37.2332 48.8108C36.3842 48.8108 35.7386 48.6398 35.2964 48.2976C34.8543 47.9555 34.6413 47.4917 34.6576 46.9064L36.3503 46.8182C36.3638 47.0694 36.4534 47.2592 36.6188 47.3875C36.7843 47.5131 37.0108 47.5773 37.2983 47.58C37.6211 47.5853 37.8951 47.5198 38.1202 47.3835C38.3481 47.2445 38.4769 47.0761 38.5068 46.8783C38.5285 46.7393 38.4878 46.627 38.3847 46.5415C38.2843 46.456 38.0999 46.3851 37.8313 46.329L36.7897 46.1165C36.1984 45.9962 35.7738 45.7811 35.5162 45.471C35.2585 45.1609 35.1703 44.7667 35.2517 44.2882C35.3168 43.906 35.4782 43.5785 35.7359 43.3059C35.9963 43.0306 36.3313 42.8194 36.7409 42.6724C37.1532 42.5254 37.6184 42.4519 38.1365 42.4519C38.9476 42.4519 39.5579 42.6163 39.9675 42.945C40.3798 43.2738 40.5765 43.7215 40.5575 44.2882Z" fill="#1E1E1E"/>
<path d="M40.6765 51L42.1169 42.5321H43.8258L43.6508 43.5665H43.7282C43.8312 43.4008 43.9682 43.2324 44.1391 43.0613C44.3127 42.8876 44.5284 42.7432 44.7861 42.6283C45.0438 42.5107 45.3462 42.4519 45.6934 42.4519C46.1518 42.4519 46.552 42.5695 46.8937 42.8047C47.2355 43.0373 47.4824 43.3888 47.6343 43.8592C47.7889 44.327 47.8065 44.9137 47.6872 45.6193C47.5732 46.3063 47.363 46.8863 47.0565 47.3594C46.7527 47.8299 46.3878 48.1867 45.962 48.43C45.5388 48.6705 45.0899 48.7908 44.6152 48.7908C44.2788 48.7908 44.0021 48.736 43.7851 48.6264C43.5708 48.5168 43.404 48.3792 43.2846 48.2134C43.1653 48.045 43.0812 47.8753 43.0324 47.7042H42.9673L42.4139 51H40.6765ZM43.2928 45.6113C43.2331 45.9775 43.2304 46.2969 43.2846 46.5696C43.3416 46.8422 43.4555 47.0547 43.6264 47.2071C43.7973 47.3568 44.0225 47.4316 44.3019 47.4316C44.584 47.4316 44.8349 47.3554 45.0546 47.2031C45.2743 47.048 45.4574 46.8342 45.6039 46.5616C45.7504 46.2862 45.8548 45.9695 45.9172 45.6113C45.9742 45.2558 45.9755 44.9431 45.9213 44.6731C45.867 44.4031 45.7558 44.192 45.5876 44.0396C45.4194 43.8873 45.1916 43.8111 44.9041 43.8111C44.6247 43.8111 44.3737 43.8846 44.1513 44.0316C43.9316 44.1786 43.7485 44.3871 43.602 44.6571C43.4555 44.927 43.3525 45.2451 43.2928 45.6113Z" fill="#1E1E1E"/>
<path d="M50.0827 48.8068C49.6867 48.8068 49.3435 48.7387 49.0533 48.6024C48.7658 48.4634 48.5542 48.2575 48.4185 47.9849C48.2829 47.7123 48.249 47.3741 48.3168 46.9705C48.3765 46.6284 48.4891 46.3424 48.6545 46.1125C48.8227 45.8799 49.0275 45.6928 49.2689 45.5512C49.5104 45.4095 49.7775 45.3013 50.0705 45.2264C50.3662 45.1516 50.6713 45.1008 50.986 45.0741C51.3495 45.0366 51.6452 45.0005 51.873 44.9658C52.1036 44.9311 52.2758 44.8816 52.3898 44.8175C52.5037 44.7506 52.5729 44.6517 52.5973 44.5208V44.4967C52.638 44.2454 52.5905 44.0503 52.4549 43.9113C52.3219 43.7697 52.109 43.6988 51.8161 43.6988C51.5068 43.6988 51.2437 43.7656 51.0267 43.8993C50.8124 44.0329 50.6591 44.2027 50.5669 44.4085L48.9882 44.2802C49.1292 43.906 49.3422 43.5825 49.627 43.3099C49.9145 43.0346 50.2604 42.8234 50.6646 42.6764C51.0687 42.5267 51.5217 42.4519 52.0236 42.4519C52.3708 42.4519 52.6949 42.492 52.996 42.5722C53.2998 42.6524 53.5616 42.7766 53.7813 42.945C54.0037 43.1134 54.1638 43.3299 54.2614 43.5946C54.3618 43.8565 54.3822 44.1706 54.3225 44.5368L53.6186 48.6906H51.9747L52.1212 47.8366H52.0724C51.9395 48.029 51.7767 48.1987 51.5841 48.3457C51.3915 48.4901 51.1705 48.6037 50.9209 48.6866C50.6713 48.7667 50.3919 48.8068 50.0827 48.8068ZM50.7785 47.6281C51.0308 47.6281 51.2627 47.5786 51.4743 47.4797C51.6886 47.3781 51.8649 47.2418 52.0032 47.0708C52.1443 46.8997 52.2338 46.7059 52.2718 46.4894L52.3776 45.8358C52.3233 45.8706 52.2446 45.9013 52.1416 45.9281C52.0412 45.9548 51.9313 45.9802 51.812 46.0042C51.6953 46.0256 51.5773 46.0457 51.458 46.0644C51.3386 46.0804 51.2315 46.0965 51.1366 46.1125C50.9277 46.1419 50.7405 46.1887 50.575 46.2528C50.4096 46.317 50.2753 46.4039 50.1722 46.5134C50.0692 46.6204 50.0054 46.754 49.981 46.9144C49.943 47.1469 49.9986 47.3247 50.1478 47.4476C50.2997 47.5679 50.5099 47.6281 50.7785 47.6281Z" fill="#1E1E1E"/>
<path d="M57.7708 48.8108C57.128 48.8108 56.599 48.6772 56.184 48.4099C55.7717 48.1399 55.4828 47.7657 55.3173 47.2873C55.1546 46.8088 55.1261 46.2582 55.2319 45.6354C55.3349 45.0046 55.5506 44.4513 55.8788 43.9755C56.207 43.497 56.6234 43.1241 57.128 42.8568C57.6352 42.5869 58.2049 42.4519 58.8369 42.4519C59.3821 42.4519 59.8433 42.5494 60.2203 42.7446C60.5974 42.9397 60.874 43.2137 61.0504 43.5665C61.2267 43.9193 61.2863 44.3336 61.2294 44.8094H59.5978C59.6005 44.5047 59.5205 44.2575 59.3577 44.0677C59.195 43.8779 58.9562 43.783 58.6416 43.783C58.3703 43.783 58.1208 43.8552 57.8929 43.9995C57.6678 44.1412 57.4765 44.3483 57.3192 44.621C57.1646 44.8936 57.0561 45.2237 56.9937 45.6113C56.9286 46.0042 56.9272 46.3384 56.9896 46.6137C57.052 46.889 57.1714 47.0988 57.3477 47.2432C57.524 47.3875 57.7464 47.4597 58.015 47.4597C58.2157 47.4597 58.4015 47.4196 58.5724 47.3394C58.746 47.2592 58.8979 47.1429 59.0281 46.9906C59.1583 46.8355 59.2587 46.6498 59.3292 46.4333H60.9649C60.8537 46.9064 60.6516 47.3207 60.3587 47.6762C60.0684 48.0317 59.7036 48.3097 59.2641 48.5101C58.8247 48.7106 58.3269 48.8108 57.7708 48.8108Z" fill="#1E1E1E"/>
<path d="M64.5201 48.8108C63.8799 48.8108 63.3496 48.6825 62.9292 48.4259C62.5087 48.1667 62.213 47.8005 62.0421 47.3274C61.874 46.8516 61.8455 46.2889 61.9567 45.6394C62.0652 45.0059 62.2836 44.4499 62.6118 43.9715C62.9427 43.493 63.3577 43.1201 63.8569 42.8528C64.356 42.5855 64.912 42.4519 65.5251 42.4519C65.9374 42.4519 66.3104 42.5174 66.644 42.6483C66.9804 42.7766 67.2598 42.9718 67.4822 43.2337C67.7047 43.493 67.8566 43.8178 67.9379 44.208C68.022 44.5983 68.0207 45.0553 67.9339 45.5792L67.8566 46.0483H62.5833L62.7501 44.9899H66.3958C66.4365 44.7439 66.4202 44.5261 66.347 44.3363C66.2738 44.1465 66.1517 43.9982 65.9808 43.8913C65.8099 43.7817 65.5997 43.7269 65.3501 43.7269C65.0952 43.7269 64.8564 43.7884 64.634 43.9113C64.4116 44.0343 64.2244 44.196 64.0725 44.3965C63.9233 44.5943 63.827 44.8094 63.7836 45.042L63.5924 46.0925C63.5381 46.4159 63.549 46.6845 63.6249 46.8983C63.7036 47.1122 63.8392 47.2726 64.0318 47.3795C64.2244 47.4837 64.4685 47.5359 64.7642 47.5359C64.9568 47.5359 65.1372 47.5091 65.3054 47.4557C65.4763 47.4022 65.6282 47.3233 65.7611 47.2191C65.894 47.1122 66.0025 46.9799 66.0866 46.8222L67.6694 46.9264C67.5229 47.306 67.3005 47.6374 67.0021 47.9207C66.7037 48.2014 66.3443 48.4206 65.9238 48.5783C65.5061 48.7333 65.0382 48.8108 64.5201 48.8108Z" fill="#1E1E1E"/>
</svg>
